# xmcd
#
# Track frame offsets:
#	150
#	11337
#	21182
#	31882
#	42237
#	52587
#	62187
#	74210
#	85162
#	94947
#	106520
#	118337
#
# Disc length: 1721 seconds
#
# Revision: 2
# Processed by: cddbd v1.5.2PL0 Copyright (c) Steve Scherf et al.
# Submitted via: EZCDAudioConverter 6.0.2.1
#
DISCID=9606b70c
DTITLE=Dolly Parton - The World of Dolly Parton, Vol. 1
DYEAR=1967
DGENRE=Country
TTITLE0=Dumb Blonde
TTITLE1=Your Ole Handy Man
TTITLE2=I Don't Want To Throw Rice
TTITLE3=Put It Off Until Tomorrow
TTITLE4=I Wasted My Tears
TTITLE5=Something Fishy
TTITLE6=Fuel To The Flame
TTITLE7=The Giving And The Taking
TTITLE8=I'm In No Condition
TTITLE9=The Company You Keep
TTITLE10=I've Lived My Life
TTITLE11=The Little Things
EXTD=
EXTT0=
EXTT1=
EXTT2=
EXTT3=
EXTT4=
EXTT5=
EXTT6=
EXTT7=
EXTT8=
EXTT9=
EXTT10=
EXTT11=
PLAYORDER=
